<mxfile host="app.diagrams.net" modified="2023-09-08T11:13:03.646Z" agent="Mozilla/5.0 (Macintosh; Intel Mac OS X 10_15_7) AppleWebKit/537.36 (KHTML, like Gecko) Chrome/116.0.0.0 Safari/537.36" version="21.7.1" etag="GkJtYbomem4V3NyM8vp6" type="github">
  <diagram name="Page-1" id="aQh2V_mcXcYYnfsNZtAM">
    <mxGraphModel>
      <root>
        <mxCell id="0" />
        <mxCell id="1" parent="0" />
      </root>
    </mxGraphModel>
  </diagram>
</mxfile>
